:SAMPLES-PER-SECOND 30
:FULLY-SPECIFIED
:DEGREES
579
root  -44.2486 41.1571 -22.7705 -130.92 -85.9306 129.379
RightUpLeg  -5.40211 -13.8378 -13.2554
RightLeg  6.79739 -4.51686 4.52385
RightFoot  5.96422 0.166911 -0.827783
RightToes  0.000482159 0.542163 -0.142577
Spine  6.12334 -2.04135 -1.3612
Spine1  18.3347 -1.97815 -0.553928
HEad  38.4513 -0.516773 -2.78656
LeftShoulder1  7.99272 -12.2506 -44.1722
LeftArm  -10.2652 19.4585 -28.217
LeftForeArm  18.7406 -21.3749 -3.86658
LeftHand  -0.25398 0.0180481 5.50724
RightShoulder  5.31981 8.8654 37
RightArm  0.0839848 -18.5198 35.1128
RightForeArm  -6.83456 30.1563 6.94146
RightHand  -0.807198 -0.040511 -17.4772
LeftUpLeg  -3.89848 30.8208 -2.49014
LeftLeg  14.5001 1.77134 -2.20147
LeftFoot  -4.33213 0.278799 -4.3874
LeftToes  1.06247e-005 4.65855e-005 -8.18504e-006
580
root  -44.0768 41.0633 -22.6358 -118.649 -86.382 117.108
RightUpLeg  -6.19103 -14.4247 -13.6575
RightLeg  8.24981 -4.97178 4.39723
RightFoot  5.80776 0.162322 -0.811988
RightToes  0.000482159 0.542163 -0.142577
Spine  7.05139 -2.06199 -0.63136
Spine1  17.1319 -1.77059 -1.00922
HEad  36.6111 1.63336 -2.50431
LeftShoulder1  7.9629 -12.3744 -43.636
LeftArm  -11.9253 19.5257 -28.6394
LeftForeArm  19.4066 -21.7465 -3.81766
LeftHand  -0.25398 0.0180481 5.50724
RightShoulder  5.31318 8.92509 36.746
RightArm  1.78199 -18.1683 34.6434
RightForeArm  -6.8206 31.0865 7.18043
RightHand  -0.794335 -0.0719655 -17.302
LeftUpLeg  -6.35849 36.7727 -2.11483
LeftLeg  20.1156 -9.22674 -3.01001
LeftFoot  -7.11959 0.503621 -12.3739
LeftToes  1.06247e-005 4.65855e-005 -8.18504e-006
581
root  -43.9192 40.9791 -22.4466 -113.596 -86.5298 111.758
RightUpLeg  -6.75274 -14.9782 -13.9038
RightLeg  9.59879 -4.60032 4.08509
RightFoot  5.62599 0.134706 -0.644065
RightToes  0.000482159 0.542163 -0.142577
Spine  7.62228 -1.97561 -0.244712
Spine1  16.4019 -1.38134 -1.73936
HEad  35.3256 4.20787 -1.9347
LeftShoulder1  7.78511 -12.3078 -42.7965
LeftArm  -13.2845 19.7468 -29.0855
LeftForeArm  20.1062 -22.1222 -3.7938
LeftHand  -0.25398 0.0180481 5.50724
RightShoulder  5.44894 9.08364 37.272
RightArm  3.66236 -17.4494 33.375
RightForeArm  -6.90812 31.9744 7.41897
RightHand  -0.855446 0.296566 -17.4613
LeftUpLeg  -7.16386 33.4558 0.0769831
LeftLeg  24.7274 -9.16549 -4.21684
LeftFoot  -9.78833 0.264211 -14.3229
LeftToes  1.06247e-005 4.65855e-005 -8.18504e-006
582
root  -43.7604 40.9105 -22.1774 -111.778 -86.5374 109.514
RightUpLeg  -7.01411 -15.6452 -14.2762
RightLeg  10.4499 -3.86708 3.75248
RightFoot  5.72342 0.0664521 -0.182426
RightToes  0.000482159 0.542163 -0.142577
Spine  7.91806 -1.86161 -0.471714
Spine1  16.0686 -1.20456 -1.90394
HEad  34.2048 6.67981 -1.53913
LeftShoulder1  7.79932 -12.2362 -43.0857
LeftArm  -14.1249 19.9571 -28.5125
LeftForeArm  20.7306 -22.6134 -3.80848
LeftHand  -0.25398 0.0180481 5.50724
RightShoulder  5.43647 9.07578 37.2015
RightArm  4.16261 -16.7563 32.7101
RightForeArm  -6.88726 32.7569 7.62843
RightHand  -1.04018 1.24749 -18.2399
LeftUpLeg  -7.16036 29.0653 2.42563
LeftLeg  27.6762 -4.76197 -2.36097
LeftFoot  -10.9005 0.105867 -11.281
LeftToes  1.06247e-005 4.65855e-005 -8.18504e-006
583
root  -43.5741 40.8233 -21.8102 -110.641 -86.677 107.852
RightUpLeg  -7.04439 -16.0941 -14.708
RightLeg  10.9261 -3.60975 3.44815
RightFoot  6.11808 -0.0362102 0.508209
RightToes  0.000482159 0.542163 -0.142577
Spine  8.25136 -1.85955 -0.584174
Spine1  15.6709 -1.10433 -2.13894
HEad  33.3401 8.94609 -0.829538
LeftShoulder1  7.83257 -12.2588 -43.2148
LeftArm  -14.9464 20.4686 -27.8721
LeftForeArm  21.7346 -23.0777 -3.81916
LeftHand  -0.25398 0.0180481 5.50724
RightShoulder  5.39772 9.00788 37.1287
RightArm  3.02414 -16.6097 32.7073
RightForeArm  -7.7039 33.2722 7.81288
RightHand  -1.41652 2.85954 -19.9961
LeftUpLeg  -6.28321 24.4002 5.0947
LeftLeg  28.6415 0.898928 0.854429
LeftFoot  -10.8449 0.0995593 -8.00933
LeftToes  1.06247e-005 4.65855e-005 -8.18504e-006
584
root  -43.3431 40.7173 -21.3576 -111.877 -86.8694 108.545
RightUpLeg  -7.02877 -16.4137 -15.1075
RightLeg  11.1333 -3.23642 3.18977
RightFoot  6.62914 -0.111929 0.996638
RightToes  0.000482159 0.542163 -0.142577
Spine  8.67192 -1.8176 -0.737649
Spine1  15.1814 -0.976628 -2.36668
HEad  32.677 11.266 -0.109467
LeftShoulder1  7.81712 -12.284 -43.0514
LeftArm  -15.512 20.9632 -27.3505
LeftForeArm  22.7184 -23.3134 -3.80662
LeftHand  -0.25398 0.0180481 5.50724
RightShoulder  5.36221 8.93717 37.0897
RightArm  1.47746 -16.9564 33.0825
RightForeArm  -10.2444 33.3379 7.96461
RightHand  -1.99505 4.91045 -22.5513
LeftUpLeg  -4.71096 20.3768 7.79669
LeftLeg  27.564 4.08109 2.64805
LeftFoot  -10.8705 0.0900268 -6.0776
LeftToes  1.06247e-005 4.65855e-005 -8.18504e-006
585
root  -43.0632 40.5772 -20.8215 -115.574 -87.1116 111.924
RightUpLeg  -7.38331 -16.8181 -15.365
RightLeg  11.345 -2.36513 2.92731
RightFoot  7.15844 -0.152117 1.23635
RightToes  0.000482159 0.542163 -0.142577
Spine  8.9654 -1.71471 -1.08914
Spine1  14.6622 -0.895256 -2.37044
HEad  32.0938 13.8151 0.309517
LeftShoulder1  7.75678 -12.2046 -42.9276
LeftArm  -15.4655 21.162 -26.6537
LeftForeArm  23.0438 -23.31 -3.78935
LeftHand  -0.25398 0.0180481 5.50724
RightShoulder  5.3765 8.94987 37.1582
RightArm  0.936131 -17.5656 33.2581
RightForeArm  -13.642 32.9646 8.03458
RightHand  -2.5461 6.59881 -24.7106
LeftUpLeg  -3.12241 15.6985 9.91596
LeftLeg  25.1072 4.85245 2.81596
LeftFoot  -10.5361 0.0979469 -5.02378
LeftToes  1.06247e-005 4.65855e-005 -8.18504e-006
586
root  -42.7183 40.3584 -20.1545 -116.931 -87.6443 113.334
RightUpLeg  -8.35705 -17.2155 -15.555
RightLeg  11.8304 -2.03069 2.61847
RightFoot  7.91226 -0.271812 1.91865
RightToes  0.000482159 0.542163 -0.142577
Spine  9.10036 -1.74407 -1.19018
Spine1  14.1075 -1.00412 -2.08232
HEad  31.4635 16.3057 0.486903
LeftShoulder1  7.70554 -12.1098 -42.901
LeftArm  -15.1394 21.0926 -25.8352
LeftForeArm  22.7682 -23.1952 -3.78413
LeftHand  -0.25398 0.0180481 5.50724
RightShoulder  5.42304 9.02892 37.2542
RightArm  1.55644 -18.4188 33.1435
RightForeArm  -15.7712 32.3164 7.96092
RightHand  -2.68164 6.95654 -25.2292
LeftUpLeg  -2.27753 9.40053 11.2096
LeftLeg  22.9384 4.48983 2.41603
LeftFoot  -9.16192 0.176066 -6.11706
LeftToes  1.06247e-005 4.65855e-005 -8.18504e-006
587
root  -42.2782 40.0686 -19.3261 -112.345 -88.2294 108.911
RightUpLeg  -9.58396 -17.7146 -16.1266
RightLeg  12.36 -2.15739 2.34604
RightFoot  9.0043 -0.523872 3.26148
RightToes  0.000482159 0.542163 -0.142577
Spine  9.49614 -1.85134 -1.0874
Spine1  13.4878 -1.19496 -1.77295
HEad  30.6472 18.3752 0.581465
LeftShoulder1  7.71897 -12.1771 -42.7842
LeftArm  -15.2034 20.761 -25.3367
LeftForeArm  22.5314 -23.0433 -3.77085
LeftHand  -0.25398 0.0180481 5.50724
RightShoulder  5.43273 9.08737 37.1339
RightArm  2.5789 -19.5122 33.0999
RightForeArm  -15.6956 31.4456 7.72154
RightHand  -2.35982 5.98835 -24.1049
LeftUpLeg  -2.32827 4.20375 11.6381
LeftLeg  22.27 2.86396 1.61581
LeftFoot  -8.39197 0.288735 -9.46683
LeftToes  1.06247e-005 4.65855e-005 -8.18504e-006
588
root  -41.7321 39.7985 -18.3909 -106.699 -88.139 103.153
RightUpLeg  -10.3633 -18.4768 -17.4393
RightLeg  12.0787 -1.08074 2.22309
RightFoot  10.4449 -0.765927 4.35739
RightToes  0.000482159 0.542163 -0.142577
Spine  10.5466 -1.69846 -1.81195
Spine1  12.8682 -1.27095 -1.4454
HEad  29.6206 20.186 0.417844
LeftShoulder1  7.82662 -12.3692 -42.8619
LeftArm  -15.6383 19.9156 -25.085
LeftForeArm  22.54 -22.9402 -3.75253
LeftHand  -0.25398 0.0180481 5.50724
RightShoulder  5.37143 9.10775 36.5954
RightArm  3.61996 -20.5569 33.394
RightForeArm  -14.7005 30.2325 7.35432
RightHand  -1.98005 4.81505 -22.6126
LeftUpLeg  -2.82263 3.39667 10.8325
LeftLeg  22.7969 0.260158 0.448446
LeftFoot  -9.73723 0.224058 -11.6382
LeftToes  1.06247e-005 4.65855e-005 -8.18504e-006
